<?xml version="1.0" encoding="UTF-8"?>
<svg id="Calque_1" data-name="Calque 1" xmlns="http://www.w3.org/2000/svg" viewBox="0 0 300 300">
  <defs>
    <style>
      .cls-1 {
        fill: #383838;
      }
    </style>
  </defs>
  <path class="cls-1" d="M302.17,59.55c-7.25-2.03-14.54-2.9-22.36-2.23-6.99.57-13.14,4.73-19.66,7.56,13.42-12.24,28.43-15.3,42.02-11.28v-11.31c-.43-.09-.85-.2-1.29-.28-6.62-1.23-12.38-2.65-18.15-5.48l16.64.95c-13.61-8.88-28.92-17.01-45.37-17.2l-21.93-.38c-6.33-.09-12.57,1.42-18.9,2.08-17.96,2.08-29.4,8.41-30.15,27.41-.57,13.8,8.98,16.54,7.94,20.13l-1.32,4.54,15.41-13.04c4.25-3.5,5.2-9.26,2.08-13.61.38,6.81-.95,10.3-5.2,13.61l-8.32,6.71c-2.65-4.73-5.95-10.59-7.94-15.5.38-14.27,11.34-25.99,25.05-27.88l-1.51,5.58c7.28-6.14,15.22-7.56,23.35-7.09-5.77,3.02-9.26,6.52-12,11.25l16.26-5.01c-11.91,6.52-19.94,16.35-19.38,29.4.28,6.14,3.97,10.96,10.59,10.87,3.88,0,7.85-.19,13.04-.57-2.93,2.55-22.31,14.46-19.19,21.74,7.09-3.78,12.67-6.14,19.38-7.56-8.6,8.98-9.36,21.17-20.61,19l-9.45-1.8c-2.08,20.32,12.1,25.61,17.3,43.67,4.73-4.92,9.07-10.3,12.95-16.07-.09,8.13-3.4,14.93-8.03,21.27-4.54,5.95-7.66,13.99-13.14,19.09-10.59,9.74-18.43,20.32-22.31,34.59-5.48,20.13-2.84,29.3,3.59,49.15-12.48-11.82-16.16-28.36-12.85-46.22l-8.03,2.55c-.09-13.8,7.28-23.91,17.11-33.84l-17.68,10.68c-4.82,2.93-8.32,6.52-10.49,11.72l-1.61-9.74-6.24,16.07c-5.01-2.46-8.88-5.39-10.96-10.59-.76-1.61-2.93-2.84-3.69-3.88l-5.01-7.85,4.44,15.03,1.51-3.21c3.97,6.9,8.32,13.04,12.95,18.9l5.77-14.18,1.13,10.87,4.16-8.13c2.27-4.35,4.82-8.13,9.07-10.68-.85,4.06-2.84,7.18-2.93,9.92l-1.23,20.7,6.81-3.02c2.74,21.17,5.39,31.19,22.21,44.14l2.46-5.01c4.44,13.61,19.47,33.55,35.35,38-7.37-27.41-17.01-53.4,9.55-72.97,17.86-13.14,29.58-24.1,40.36-43.38-4.44,11.34-10.68,21.55-18.15,31-9.83,12.29-25.9,22.78-27.69,40.27-2.17,20.79,3.97,33.93,16.54,50.38.09-4.54-.28-7.94-.85-11.91-1.7-13.7,2.27-27.32,12.85-36.58l1.51,24.48c7.62-14.37,12.15-28.5,24.25-39.71V59.55ZM227.63,62.61l-.94-7.37-3.4,3.97c-1.13-10.78,3.78-21.83,14.27-25.99,7.75-2.93,16.82-3.88,25.14-1.23-7.56.28-13.8.66-19.94,5.1-5.39,4.06-11.82,7.85-11.91,16.35,7.37-5.95,16.35-8.22,25.99-3.69-10.59.09-22.02,3.88-29.21,12.85ZM283.87,85.2l-14.75,12.67-9.92-3.5c7.18-5.2,14.75-9.92,24.67-9.17ZM228.58,115.92c3.88,8.13,5.39,15.88,1.51,23.44,1.04-22.02-7.56-21.17-14.27-35.16,13.8,12.67,20.51,9.83,35.35,5.1l-5.95,4.25c-4.91,3.59-10.11,4.35-16.64,2.36ZM223.1,200.23c-13.23,20.7-12.86,38.28-4.25,62.67-3.59-5.58-7.18-11.82-10.68-18.53-.66,3.78-1.32,7.18-2.74,10.87-4.63-20.23-1.99-42.63,11.25-59.55,8.51-10.96,29.3-19.85,36.2-34.5-2.93,15.22-16.54,18.34-29.77,39.04ZM270.64,168c-3.69,9.55-9.17,17.68-18.53,21.64,11.15-14.08,17.58-31.85,14.18-50.1-1.7-8.88-8.7-15.03-13.99-21.27,17.58,11.63,26.09,29.3,18.34,49.72ZM264.97,110.82c8.88-3.97,15.5-8.98,21.27-15.88,2.27-2.74,2.27-6.9,1.8-10.3-1.13-8.41-7.37-13.71-15.41-13.99,6.43-1.8,12.76.19,17.11,4.16,4.35,4.06,7.75,10.59,6.24,17.11-2.46,10.21-11.44,16.16-22.02,19.09,14.27,5.86,23.63,17.01,23.54,31.19-7.56-14.65-19.47-26.56-32.51-31.38Z"/>
  <path class="cls-1" d="M174.7,172.82c-11.25,6.24-31.1-4.16-31.48-3.59l-1.89,2.46c-.28-5.01-.85-7.84-3.5-11.63-1.42-2.08-2.46-5.39-3.69-7.94-5.95-12.19-4.91-21.55,6.14-28.45-3.02,5.39-7.94,8.22-6.43,13.89,4.82-1.98,9.64-3.02,14.84-2.36-4.35,2.74-8.88,5.1-10.49,8.79-2.08,4.44-3.02,10.87.28,14.56,6.99,7.94,17.2,15.31,28.26,14.75l7.94-.47Z"/>
  <path class="cls-1" d="M225.27,146.83c-4.06,11.53-12.38,23.35-24.95,25.71,5.29-5.77,12-8.7,15.97-14.46,5.29-7.56,4.92-16.16,5.86-25.33l1.23,9.83c0,.47-.57,2.55-.57,3.02-.09.47.66.47,2.46,1.23Z"/>
  <path class="cls-1" d="M203.34,102.5c-6.52,5.39-12.48,10.59-18.9,5.95l-7.85,6.62,7.85-12.38c1.99,1.32,5.48,2.36,7.75,1.99l11.15-2.17Z"/>
  <path class="cls-1" d="M178.77,139.08c1.89,4.25,4.82,8.03,2.65,13.52-2.08-5.39-3.88-9.36-9.83-13.8,4.92-1.8,8.98-2.84,13.71-3.4l-6.52,3.69Z"/>
  <path class="cls-1" d="M159.2,104.68c-3.4,5.48-7.75,9.83-13.61,13.71,3.78-5.01,8.22-9.45,13.61-13.71Z"/>
</svg>